<svg width="20" height="20" viewBox="0 0 20 20" fill="none" xmlns="http://www.w3.org/2000/svg">
<path opacity="0.4" fill-rule="evenodd" clip-rule="evenodd" d="M4.76788 8.31973C7.33348 2.77582 8.66606 0.670834 12.8584 0.758107C14.3516 0.788892 13.9922 -0.327572 15.1304 0.0960796C16.2687 0.519732 15.2919 1.13968 16.4565 2.09854C19.7216 4.79043 19.4207 7.28065 17.9056 13.2149C17.2674 15.715 19.4437 15.8376 18.5825 18.2603C17.9539 20.0275 13.32 20.7669 8.42869 18.9444C3.53852 17.1227 0.452591 13.5064 1.08091 11.74C1.9424 9.31616 3.68589 10.6543 4.76788 8.31973ZM8.96052 17.4514C13.3276 19.0788 16.9169 18.1222 17.0685 17.6966C17.3298 16.9628 15.6589 14.5147 10.6655 12.6545C5.67209 10.7944 2.88598 11.4838 2.59489 12.3038C2.42248 12.787 4.59207 15.8243 8.96052 17.4514ZM10.3635 13.5041C12.6464 14.3548 14.2341 15.3278 15.2601 16.2036C14.5384 16.8634 13.1836 17.0247 11.8336 16.5214C10.1151 15.8816 9.06044 14.4121 9.4781 13.2392C9.48232 13.2251 9.4902 13.2129 9.49554 13.1985C9.7768 13.2923 10.0656 13.3925 10.3635 13.5041Z" fill="#2B3034"/>
</svg>
