<svg width="46" height="46" viewBox="0 0 46 46" fill="none" xmlns="http://www.w3.org/2000/svg">
<path opacity="0.5" fill-rule="evenodd" clip-rule="evenodd" d="M23 17C27.4183 17 31 20.5817 31 25C31 29.4183 27.4183 33 23 33C18.5817 33 15 29.4183 15 25C15 20.5817 18.5817 17 23 17Z" fill="url(#paint0_linear)"/>
<path fill-rule="evenodd" clip-rule="evenodd" d="M16.0724 11.0465C16.0886 10.8953 16.1614 10.6137 16.4584 10.427C17.7016 9.64632 19.8461 8.71442 23.0002 8.71442C26.1542 8.71442 28.2987 9.64632 29.5419 10.4278C29.839 10.6145 29.9117 10.8953 29.9279 11.0473C29.9581 11.3149 29.8661 11.578 29.675 11.7686C29.3841 12.0578 28.9315 12.1095 28.5996 11.8912C27.9096 11.4361 27.1506 11.0681 26.3422 10.7958L25.321 10.4509V12.5716H20.6793V10.4509L19.6581 10.795C18.8497 11.0673 18.0908 11.4353 17.4007 11.8904C17.0681 12.1103 16.6155 12.0571 16.3254 11.7678C16.1343 11.5772 16.0422 11.3142 16.0724 11.0465ZM20.6793 4.85724C20.6793 3.58127 21.7206 2.54291 23.0002 2.54291C24.2798 2.54291 25.321 3.58127 25.321 4.85724C25.321 6.1332 24.2798 7.17156 23.0002 7.17156C21.7206 7.17156 20.6793 6.1332 20.6793 4.85724ZM18.254 13.1772C18.5325 12.9936 18.8265 12.8262 19.1321 12.6766V14.1145H26.8683V12.6766C27.1739 12.8262 27.4671 12.9936 27.7464 13.1772C28.6902 13.8005 29.9589 13.6663 30.7689 12.8586C31.295 12.334 31.5487 11.612 31.4659 10.8752C31.3847 10.1493 30.984 9.50978 30.3666 9.12329C29.3748 8.49919 27.874 7.7995 25.8595 7.43152C26.4799 6.74725 26.8683 5.85006 26.8683 4.85721C26.8683 2.73035 25.1331 1 23.0002 1C20.8673 1 19.1321 2.73035 19.1321 4.85721C19.1321 5.85006 19.5205 6.74725 20.1401 7.43152C18.1256 7.7995 16.6248 8.49919 15.633 9.12329C15.0157 9.51056 14.6157 10.1493 14.5337 10.8752C14.4517 11.612 14.7054 12.3348 15.2307 12.8586C16.0407 13.6655 17.3102 13.799 18.254 13.1772ZM7.16184 26.6412C6.79979 25.221 6.57389 22.8997 7.54942 19.9073C8.52419 16.9156 10.0753 15.1706 11.2048 14.2341C11.3897 14.0806 11.5846 14.0405 11.737 14.0405C11.8067 14.0405 11.8678 14.049 11.9142 14.0582C12.1788 14.1122 12.4 14.2812 12.523 14.5218C12.7095 14.8875 12.6197 15.3319 12.3087 15.5787C11.6597 16.0948 11.0733 16.7012 10.5658 17.3824L9.92289 18.2441L11.9451 18.8998L10.5108 23.3016L8.4886 22.6467L8.50098 23.7213C8.51103 24.573 8.62785 25.4069 8.84833 26.2007C8.95509 26.5834 8.76555 26.9953 8.39808 27.182C8.15749 27.3039 7.87821 27.3101 7.63375 27.199C7.4945 27.1372 7.24849 26.9814 7.16184 26.6412ZM3.15301 20.9171C2.56351 20.7266 2.08387 20.3177 1.80305 19.7669C1.52145 19.2161 1.47194 18.5897 1.66379 18.0011C1.98175 17.0244 2.89462 16.4019 3.87248 16.4019C4.10998 16.4019 4.35058 16.4389 4.58808 16.5153C5.80421 16.9087 6.47262 18.2163 6.07807 19.4298C6.07807 19.4298 6.07807 19.4305 6.0773 19.4305C6.0773 19.4313 6.0773 19.4321 6.07652 19.4329C5.68198 20.6456 4.37147 21.3121 3.15301 20.9171ZM9.09981 28.5575C10.1194 28.0398 10.6409 26.8757 10.3399 25.7888C10.2502 25.4679 10.1813 25.1377 10.1326 24.8013L11.5034 25.2457L13.8947 17.9085L12.5239 17.4649C12.7606 17.2219 13.0112 16.9951 13.2727 16.786C14.1577 16.0848 14.4215 14.8382 13.9017 13.8214C13.5644 13.1618 12.954 12.6966 12.2268 12.5477C11.5081 12.4019 10.7755 12.5825 10.2146 13.0484C9.31333 13.7959 8.1823 15.0017 7.20986 16.7984C6.73176 15.9699 5.98444 15.3458 5.06538 15.048C3.03927 14.3923 0.850698 15.5016 0.191574 17.5243C-0.127932 18.5048 -0.0459278 19.5494 0.42366 20.4674C0.892474 21.3846 1.6924 22.0658 2.67489 22.3844C3.06867 22.5117 3.47172 22.5749 3.87478 22.5749C4.41012 22.5749 4.94083 22.4561 5.43981 22.2347C5.17059 24.2536 5.37406 25.8898 5.66184 27.0208C5.84132 27.7259 6.32716 28.3037 6.99479 28.6053C7.31584 28.7503 7.65701 28.8221 7.9974 28.8221C8.3757 28.8221 8.75245 28.7334 9.09981 28.5575ZM20.4318 40.1947C20.3289 40.3065 20.1177 40.4917 19.7534 40.4685C18.2873 40.3729 16.0036 39.8707 13.4514 38.0215C10.8985 36.1708 9.71409 34.1605 9.16946 32.8004V32.7996C9.03949 32.4749 9.14702 32.2048 9.22206 32.0729C9.35513 31.8384 9.58489 31.6803 9.85024 31.6386C9.89743 31.6317 9.94385 31.6278 9.99027 31.6278C10.3454 31.6278 10.6703 31.84 10.7933 32.1686C11.0818 32.9385 11.4795 33.6822 11.9731 34.378L12.5966 35.2551L13.8468 33.5394L17.6019 36.2603L16.3533 37.9752L17.3807 38.2954C18.1937 38.5492 19.0254 38.6965 19.8532 38.7328C20.2508 38.7498 20.5858 39.0576 20.6508 39.4618C20.6941 39.7287 20.6136 39.9956 20.4318 40.1947ZM13.0561 42.5021C12.691 43.002 12.1533 43.3306 11.5406 43.4278C10.9341 43.5235 10.3152 43.3777 9.8139 43.0143C9.3126 42.6502 8.98303 42.114 8.88556 41.5038C8.78885 40.8928 8.93584 40.2819 9.30022 39.782C9.66537 39.2821 10.203 38.9534 10.815 38.8562C10.938 38.8377 11.061 38.8277 11.1832 38.8277C11.669 38.8277 12.1417 38.9797 12.5425 39.2705C13.5768 40.0196 13.8073 41.4699 13.0561 42.5021ZM19.922 37.1922C19.5862 37.1768 19.2505 37.1413 18.9147 37.0827L19.7626 35.9186L13.5048 31.3848L12.6561 32.5481C12.4976 32.2473 12.3583 31.9395 12.2415 31.6278C11.8446 30.5732 10.7391 29.9337 9.60809 30.115C8.87469 30.23 8.24265 30.6666 7.87595 31.31C7.5139 31.9449 7.46129 32.697 7.73128 33.372C8.16528 34.4575 8.96598 35.9039 10.3794 37.382C9.44098 37.5795 8.61553 38.0948 8.04769 38.874C7.4404 39.7071 7.19439 40.7262 7.35608 41.7445C7.51776 42.7628 8.06703 43.6561 8.90254 44.2617C9.57018 44.7462 10.3577 45 11.1685 45C11.3719 45 11.5762 44.9838 11.782 44.9514C12.8024 44.7902 13.699 44.2424 14.3071 43.4093C14.8919 42.6062 15.1062 41.6527 15.008 40.7362C16.8554 41.6195 18.4815 41.932 19.6512 42.0091C19.7038 42.0122 19.7572 42.0145 19.8098 42.0145C20.4798 42.0145 21.1157 41.7353 21.5737 41.2346C22.0734 40.6876 22.2947 39.954 22.1779 39.2219C21.9992 38.0948 21.0499 37.2416 19.922 37.1922ZM37.1156 41.5038C37.0182 42.114 36.6886 42.6502 36.1873 43.0143C35.686 43.3776 35.0686 43.5234 34.4606 43.4278C33.8479 43.3306 33.3102 43.0019 32.945 42.502C32.1931 41.4691 32.4236 40.0195 33.4595 39.2697C33.96 38.9071 34.572 38.7629 35.1862 38.8562C35.7982 38.9534 36.3358 39.282 36.701 39.7819C37.0653 40.2818 37.2123 40.8928 37.1156 41.5038ZM26.2471 40.4685C25.8781 40.4901 25.6707 40.3057 25.5686 40.1947C25.3868 39.9956 25.3064 39.7287 25.3489 39.4641C25.4139 39.0591 25.7497 38.7513 26.1473 38.7343C26.9743 38.6973 27.8067 38.5507 28.619 38.2969L29.6464 37.9768L28.3978 36.2618L32.1529 33.541L33.4031 35.2567L34.0266 34.3795C34.521 33.6837 34.9178 32.94 35.2064 32.1701C35.3456 31.799 35.7402 31.58 36.1494 31.6394C36.4156 31.6818 36.6453 31.8399 36.7776 32.0737C36.8534 32.2056 36.9602 32.4756 36.8302 32.8012C36.2856 34.1612 35.1012 36.1708 32.5482 38.0215C29.9968 39.8707 27.7131 40.3729 26.2471 40.4685ZM35.6203 37.382C37.0337 35.9031 37.8344 34.4574 38.2684 33.3728C38.5392 32.697 38.4858 31.9449 38.1238 31.31C37.7563 30.6666 37.125 30.2307 36.3916 30.115C35.2622 29.9345 34.1543 30.5732 33.7582 31.6278C33.6414 31.9402 33.5022 32.248 33.3436 32.5481L32.4949 31.3848L26.2371 35.9186L27.085 37.0827C26.7492 37.1405 26.4135 37.1768 26.0785 37.1922C24.9506 37.2416 24.0006 38.0948 23.8211 39.2219C23.705 39.9532 23.9255 40.6868 24.4253 41.2338C24.8833 41.7337 25.5192 42.0137 26.1891 42.0137C26.2417 42.0137 26.2951 42.0114 26.3477 42.0083C27.5174 41.9319 29.1444 41.6187 30.991 40.7354C30.8927 41.6519 31.107 42.6054 31.6919 43.4085H31.6927C32.3 44.2416 33.1958 44.7894 34.217 44.9506C34.4228 44.983 34.627 44.9992 34.8305 44.9992C35.6412 44.9992 36.428 44.7454 37.0964 44.2609C37.9319 43.6553 38.4812 42.762 38.6429 41.7437C38.8046 40.7254 38.5593 39.7063 37.9513 38.8732C37.3842 38.0956 36.5587 37.5795 35.6203 37.382ZM44.1974 19.7669C43.9166 20.3177 43.4369 20.7266 42.8474 20.9171C41.6298 21.3121 40.3169 20.644 39.9224 19.4313C39.5263 18.2178 40.1955 16.9087 41.4124 16.5153C41.6499 16.4381 41.8905 16.4019 42.128 16.4019C43.1066 16.4019 44.0187 17.0252 44.3367 18.0018C44.5285 18.5897 44.4798 19.2161 44.1974 19.7669ZM38.8385 26.6412C38.7526 26.9806 38.5059 27.1372 38.3674 27.1997C38.1237 27.3116 37.8444 27.3054 37.6023 27.182C37.2356 26.9961 37.046 26.5841 37.1528 26.2015C37.3733 25.4069 37.4909 24.573 37.5002 23.7213L37.5125 22.6467L35.4903 23.3016L34.056 18.8998L36.0782 18.244L35.4354 17.3823C34.9279 16.7012 34.3415 16.0948 33.6916 15.5787C33.3814 15.3319 33.2909 14.8875 33.4781 14.5218C33.6011 14.2811 33.8224 14.113 34.0869 14.0582C34.2363 14.0266 34.5279 14.0104 34.7971 14.2341C35.9266 15.1714 37.4777 16.9164 38.4525 19.908C39.4257 22.9005 39.1998 25.221 38.8385 26.6412ZM45.8081 17.5251C45.149 15.5016 42.9596 14.3923 40.9343 15.048C40.0152 15.3458 39.2679 15.9699 38.7898 16.7984C37.8166 15.0017 36.6856 13.7959 35.7851 13.0484C35.2234 12.5825 34.4916 12.4012 33.7729 12.5477C33.0457 12.6966 32.4353 13.1618 32.098 13.8214C31.5781 14.8374 31.8427 16.0848 32.7262 16.7861C32.9884 16.9951 33.2391 17.2211 33.4758 17.4649L32.105 17.9085L34.4962 25.2457L35.8671 24.8013C35.8191 25.1385 35.7503 25.4679 35.6598 25.7896C35.3581 26.8758 35.8795 28.0399 36.8991 28.5567C37.2472 28.7334 37.6248 28.8229 38.0023 28.8229C38.3427 28.8229 38.6838 28.7504 39.0049 28.6061C39.6718 28.3045 40.1576 27.7267 40.3378 27.0216H40.3386C40.6264 25.8906 40.8299 24.2544 40.5599 22.2355C41.0596 22.4577 41.5896 22.5757 42.1249 22.5757C42.528 22.5757 42.9318 22.5125 43.3248 22.3852C44.3081 22.0666 45.1072 21.3854 45.576 20.4681C46.0456 19.5494 46.1284 18.5041 45.8081 17.5251Z" fill="#5E77FF"/>
<defs>
<linearGradient id="paint0_linear" x1="31" y1="17.1396" x2="15.2793" y2="17.1396" gradientUnits="userSpaceOnUse">
<stop stop-color="#C887EB" stop-opacity="0.65"/>
<stop offset="1" stop-color="#C887EB"/>
</linearGradient>
</defs>
</svg>
