<svg width="46" height="46" viewBox="0 0 46 46" fill="none" xmlns="http://www.w3.org/2000/svg">
<path opacity="0.5" fill-rule="evenodd" clip-rule="evenodd" d="M15 12.5C15 14.9854 12.9852 17 10.5 17C8.0148 17 6 14.9854 6 12.5C6 10.0148 8.0148 8 10.5 8C12.9852 8 15 10.0148 15 12.5Z" fill="url(#paint0_linear)"/>
<path fill-rule="evenodd" clip-rule="evenodd" d="M43.7742 34.129H37.8387V3.70966C37.8387 1.66394 36.1748 0 34.129 0H3.70966C1.66394 0 0 1.66394 0 3.70966C0 5.75543 1.66394 7.41937 3.70966 7.41937V46H34.871V41.5484H37.8387V38.5806H43.7742C45.0015 38.5806 46 37.5821 46 36.3549C46 35.1276 45.0015 34.129 43.7742 34.129ZM36.3548 3.70972V34.129H34.8709V5.93549H34.129C32.9017 5.93549 31.9032 4.93695 31.9032 3.70972C31.9032 2.48242 32.9017 1.48389 34.129 1.48389C35.3563 1.48389 36.3548 2.48242 36.3548 3.70972ZM1.48389 3.70972C1.48389 2.48242 2.48242 1.48389 3.70972 1.48389H31.1807C30.7092 2.10535 30.4194 2.87122 30.4194 3.70972C30.4194 4.54816 30.7092 5.31427 31.1807 5.93549H3.70972C2.48242 5.93549 1.48389 4.93695 1.48389 3.70972ZM5.19354 44.5162V7.41937H33.3871V34.129H12.4924L5.8158 36.3549L12.4924 38.5807H33.3871V44.5162H5.19354ZM10.5076 36.3549L11.871 35.9004V36.8085L10.5076 36.3549ZM34.871 40.0645H36.3549V38.5806H34.871V40.0645ZM13.3549 37.0968H37.8387V35.6129H13.3549V37.0968ZM39.3226 37.0968H40.8065V35.6129H39.3226V37.0968ZM43.7742 37.0968H42.2903V35.6129H43.7742C44.1838 35.6129 44.5162 35.9461 44.5162 36.3549C44.5162 36.7638 44.1838 37.0968 43.7742 37.0968ZM16.3226 14.8387H28.9355V13.3549H16.3226V14.8387ZM12.8796 17.2368L13.8301 18.376L8.85773 22.52L6.89465 20.5571L7.94403 19.5075L8.94952 20.5122L12.8796 17.2368ZM16.3226 19.2903H31.9032V17.8065H16.3226V19.2903ZM19.2903 22.2581H16.3226V20.7742H19.2903V22.2581ZM20.7742 22.2581H31.9032V20.7742H20.7742V22.2581ZM12.8796 24.6562L13.8301 25.7954L8.85773 29.9394L6.89465 27.9765L7.94403 26.9269L8.94952 27.9316L12.8796 24.6562ZM16.3226 26.7097H31.9032V25.2258H16.3226V26.7097ZM27.4516 29.6774H16.3226V28.1935H27.4516V29.6774ZM28.9355 29.6774H31.9032V28.1935H28.9355V29.6774ZM31.9032 11.871H28.9355V10.3871H31.9032V11.871ZM13.8301 10.9567L12.8796 9.8175L8.94952 13.0929L7.94403 12.0882L6.89465 13.1378L8.85773 15.1007L13.8301 10.9567ZM27.4516 11.871H16.3226V10.3871H27.4516V11.871Z" fill="#5E77FF"/>
<defs>
<linearGradient id="paint0_linear" x1="15" y1="8.07854" x2="6.15709" y2="8.07854" gradientUnits="userSpaceOnUse">
<stop stop-color="#C887EB" stop-opacity="0.65"/>
<stop offset="1" stop-color="#C887EB"/>
</linearGradient>
</defs>
</svg>
