<svg width="46" height="46" viewBox="0 0 46 46" fill="none" xmlns="http://www.w3.org/2000/svg">
<path opacity="0.5" fill-rule="evenodd" clip-rule="evenodd" d="M24.6316 22H24.3675C22.613 23.4048 20.4054 24.25 18 24.25C15.5946 24.25 13.387 23.4048 11.6325 22H4V34H32V22H24.6316Z" fill="url(#paint0_linear)"/>
<path fill-rule="evenodd" clip-rule="evenodd" d="M43.033 36.3549H43.775C45.0022 36.3549 46 37.3534 46 38.5806C46 39.8079 45.0014 40.8065 43.7742 40.8065H41.5483C41.5483 43.6699 39.219 46 36.3547 46C33.4911 46 31.161 43.6699 31.161 40.8065H17.064C17.064 43.6699 14.7347 46 11.8712 46C9.00687 46 6.67752 43.6699 6.67752 40.8065H2.22583C0.998566 40.8065 0 39.8079 0 38.5806C0 37.3534 0.998566 36.3549 2.22583 36.3549H2.9678V14.0968H6.71533C6.7121 14.0478 6.70865 13.9988 6.7052 13.9499C6.69135 13.7526 6.67752 13.5555 6.67752 13.3549C6.67752 10.3647 7.8692 7.65125 9.79449 5.6496L9.27435 5.12946L7.94418 6.46039L6.89478 5.41077L10.6053 1.70111L11.6539 2.75067L10.324 4.08063L10.8928 4.64948C12.6115 3.28235 14.7416 2.41833 17.0648 2.26379V1.48389H14.839V0H20.7745V1.48389H18.5495V2.26379C20.8727 2.41833 23.002 3.28156 24.7215 4.64948L25.2903 4.08063L23.9604 2.75067L25.009 1.70111L28.7188 5.41077L27.6693 6.46039L26.3392 5.12946L25.819 5.6496C27.7443 7.65125 28.936 10.3647 28.936 13.3549C28.936 13.5561 28.9221 13.7528 28.9083 13.9499C28.9049 13.9988 28.9014 14.0478 28.8982 14.0968H32.6457V20.7742H39.253L39.995 28.1935H43.033V36.3549ZM38.5031 28.1935L37.9096 22.2581H32.6457V28.1935H38.5031ZM27.4521 13.3548C27.4521 8.0368 23.1248 3.70966 17.8068 3.70966C12.4887 3.70966 8.16144 8.0368 8.16144 13.3548C8.16144 18.6728 12.4887 23 17.8068 23C23.1248 23 27.4521 18.6736 27.4521 13.3548ZM2.22583 39.3226H2.96777V37.8387H2.22583C1.81708 37.8387 1.48389 38.1711 1.48389 38.5806C1.48389 38.9904 1.81708 39.3226 2.22583 39.3226ZM8.16144 40.8065C8.16144 42.8522 9.82538 44.5162 11.8712 44.5162C13.917 44.5162 15.5809 42.8522 15.5809 40.8065C15.5809 38.7607 13.917 37.0968 11.8712 37.0968C9.82538 37.0968 8.16144 38.7607 8.16144 40.8065ZM11.8712 35.6129C14.2183 35.6129 16.2054 37.1802 16.8462 39.3226H31.1618V15.5806H28.7118C27.6778 20.6545 23.1812 24.4838 17.8068 24.4838C12.4323 24.4838 7.93567 20.6545 6.9017 15.5806H4.45169V39.3226H6.89615C7.53702 37.1802 9.52405 35.6129 11.8712 35.6129ZM32.6457 40.8065C32.6457 42.8522 34.3097 44.5162 36.3555 44.5162C38.4013 44.5162 40.0652 42.8522 40.0652 40.8065C40.0652 38.7607 38.4013 37.0968 36.3555 37.0968C34.3097 37.0968 32.6457 38.7607 32.6457 40.8065ZM41.3305 39.3226H41.5491V29.6774H32.6457V37.1787C33.5895 36.2142 34.9024 35.6129 36.3555 35.6129C38.7026 35.6129 40.6896 37.1803 41.3305 39.3226ZM43.033 39.3226H43.7749C44.1837 39.3226 44.5169 38.9904 44.5169 38.5806C44.5169 38.1711 44.1837 37.8387 43.7749 37.8387H43.033V39.3226ZM9.64532 40.8065C9.64532 39.5792 10.6439 38.5806 11.8712 38.5806C13.0984 38.5806 14.097 39.5792 14.097 40.8065C14.097 42.0337 13.0984 43.0322 11.8712 43.0322C10.6439 43.0322 9.64532 42.0337 9.64532 40.8065ZM11.1292 40.8065C11.1292 41.2162 11.4624 41.5484 11.8712 41.5484C12.2799 41.5484 12.6131 41.2162 12.6131 40.8065C12.6131 40.3969 12.2799 40.0645 11.8712 40.0645C11.4624 40.0645 11.1292 40.3969 11.1292 40.8065ZM34.1296 40.8065C34.1296 39.5792 35.1282 38.5806 36.3554 38.5806C37.5827 38.5806 38.5813 39.5792 38.5813 40.8065C38.5813 42.0337 37.5827 43.0322 36.3554 43.0322C35.1282 43.0322 34.1296 42.0337 34.1296 40.8065ZM35.6135 40.8065C35.6135 41.2162 35.9467 41.5484 36.3555 41.5484C36.7643 41.5484 37.0974 41.2162 37.0974 40.8065C37.0974 40.3969 36.7643 40.0645 36.3555 40.0645C35.9467 40.0645 35.6135 40.3969 35.6135 40.8065ZM17.8067 15.5806C16.5795 15.5806 15.5809 14.5821 15.5809 13.3549C15.5809 12.803 15.7904 12.3038 16.1242 11.9143L12.0488 7.16058L13.1766 6.19446L17.4381 11.1662C17.5586 11.1461 17.6807 11.129 17.8067 11.129C19.034 11.129 20.0326 12.1276 20.0326 13.3549C20.0326 14.5821 19.034 15.5806 17.8067 15.5806ZM17.8068 14.0968C18.2155 14.0968 18.5487 13.7638 18.5487 13.3549C18.5487 12.9461 18.2155 12.6129 17.8068 12.6129C17.398 12.6129 17.0648 12.9461 17.0648 13.3549C17.0648 13.7638 17.398 14.0968 17.8068 14.0968ZM17.2518 20.0046L17.1297 21.4829C12.933 21.1367 9.64532 17.5669 9.64532 13.3549C9.64532 11.3609 10.3803 9.43665 11.7135 7.93793L12.8218 8.92419C11.7305 10.1515 11.1292 11.7242 11.1292 13.3549C11.1292 16.8002 13.8188 19.7208 17.2518 20.0046Z" fill="#5E77FF"/>
<defs>
<linearGradient id="paint0_linear" x1="32" y1="22.1047" x2="4.48871" y2="22.1047" gradientUnits="userSpaceOnUse">
<stop stop-color="#C887EB" stop-opacity="0.65"/>
<stop offset="1" stop-color="#C887EB"/>
</linearGradient>
</defs>
</svg>
