<svg width="46" height="46" viewBox="0 0 46 46" fill="none" xmlns="http://www.w3.org/2000/svg">
<path opacity="0.5" fill-rule="evenodd" clip-rule="evenodd" d="M35 23C35 29.6272 29.6272 35 23 35C16.3728 35 11 29.6272 11 23C11 16.3728 16.3728 11 23 11C29.6272 11 35 16.3728 35 23Z" fill="url(#paint0_linear)"/>
<path fill-rule="evenodd" clip-rule="evenodd" d="M0 33.3871C0 26.4323 5.6581 20.7742 12.6129 20.7742C19.5677 20.7742 25.2258 26.4323 25.2258 33.3871C25.2258 40.3421 19.5677 46 12.6129 46C5.6581 46 0 40.3421 0 33.3871ZM1.48387 33.3871C1.48387 39.5236 6.4764 44.5161 12.6129 44.5161C18.7494 44.5161 23.7419 39.5236 23.7419 33.3871C23.7419 27.2508 18.7494 22.2581 12.6129 22.2581C6.4764 22.2581 1.48387 27.2508 1.48387 33.3871ZM41.8398 4.45161H46V10.3871H43.7742V23H27.4516V10.3871H25.2258V4.45161H29.386C28.6619 4.03593 28.1936 3.2661 28.1936 2.38883C28.1936 1.07116 29.2647 0 30.5824 0C31.6019 0 32.6018 0.350985 33.3988 0.987665L35.6129 2.75921L37.8264 0.988456C38.6224 0.350985 39.6233 0 40.6434 0C41.9611 0 43.0323 1.07116 43.0323 2.38883C43.0323 3.26531 42.5639 4.03514 41.8398 4.45161ZM36.3548 8.90323V5.93548H35.6948L35.6129 5.95329L35.531 5.93548H34.871V8.90323H36.3548ZM40.6434 1.48387C39.9595 1.48387 39.2886 1.71892 38.7546 2.14627L36.0046 4.34655L40.8397 3.27223C41.257 3.17964 41.5484 2.81639 41.5484 2.38883C41.5484 1.88966 41.1426 1.48387 40.6434 1.48387ZM32.4713 2.14627C31.9373 1.71892 31.2663 1.48387 30.5824 1.48387C30.0832 1.48387 29.6774 1.88966 29.6774 2.38883C29.6774 2.8156 29.9689 3.17964 30.3861 3.27223L35.2212 4.34655L32.4713 2.14627ZM33.3871 8.90323H26.7097V5.93548H33.3871V8.90323ZM33.3871 21.5161H28.9355V10.3871H33.3871V21.5161ZM36.3548 10.3871V21.5161H34.871V10.3871H36.3548ZM42.2903 21.5161H37.8387V10.3871H42.2903V21.5161ZM44.5161 8.90323H37.8387V5.93548H44.5161V8.90323ZM13.3548 25.9677H13.7258C15.9756 25.9677 17.8065 27.7986 17.8065 30.0484V31.1613H16.3226V30.0484C16.3226 28.6164 15.1578 27.4516 13.7258 27.4516H11.5C10.068 27.4516 8.90323 28.6164 8.90323 30.0484C8.90323 31.4804 10.068 32.6452 11.5 32.6452H13.7258C15.9756 32.6452 17.8065 34.4761 17.8065 36.7258C17.8065 38.9756 15.9756 40.8064 13.7258 40.8064H13.3548V43.0323H11.871V40.8064H11.5C9.25025 40.8064 7.41935 38.9756 7.41935 36.7258V35.6129H8.90323V36.7258C8.90323 38.1578 10.068 39.3226 11.5 39.3226H13.7258C15.1578 39.3226 16.3226 38.1578 16.3226 36.7258C16.3226 35.2938 15.1578 34.129 13.7258 34.129H11.5C9.25025 34.129 7.41935 32.2981 7.41935 30.0484C7.41935 27.7986 9.25025 25.9677 11.5 25.9677H11.871V23.7419H13.3548V25.9677ZM19.451 7.06857L19.1297 5.62011C12.4127 7.11031 7.11031 12.4127 5.62011 19.1297L7.06916 19.4504C8.43412 13.2947 13.2945 8.43412 19.451 7.06857ZM26.8703 40.3799L26.549 38.9308C32.7055 37.5659 37.5659 32.7055 38.9308 26.549L40.3799 26.8705C38.8891 33.5873 33.5873 38.8891 26.8703 40.3799Z" fill="#5E77FF"/>
<defs>
<linearGradient id="paint0_linear" x1="35" y1="11.2094" x2="11.4189" y2="11.2094" gradientUnits="userSpaceOnUse">
<stop stop-color="#C887EB" stop-opacity="0.65"/>
<stop offset="1" stop-color="#C887EB"/>
</linearGradient>
</defs>
</svg>
