<svg width="30" height="30" viewBox="0 0 30 30" fill="none" xmlns="http://www.w3.org/2000/svg">
<path fill-rule="evenodd" clip-rule="evenodd" d="M14.9826 0L2 7.5V22.5L14.9826 30L27.9652 22.5V7.5L14.9826 0Z" fill="#8597FC"/>
<path fill-rule="evenodd" clip-rule="evenodd" d="M14.9826 15V0L2 7.5L14.9826 15Z" fill="#A1AEF9"/>
<path fill-rule="evenodd" clip-rule="evenodd" d="M2 7.5V22.5L14.9826 15L2 7.5Z" fill="#5E77FF"/>
<path fill-rule="evenodd" clip-rule="evenodd" d="M27.9652 7.5L14.9826 15L27.9652 22.5V7.5Z" fill="#8597FC"/>
<path fill-rule="evenodd" clip-rule="evenodd" d="M14.9826 15L2 22.5L14.9826 30V15Z" fill="#4059E1"/>
<path fill-rule="evenodd" clip-rule="evenodd" d="M14.9826 30L27.9652 22.5L14.9826 15V30Z" fill="#5E77FF"/>
<path fill-rule="evenodd" clip-rule="evenodd" d="M22.3095 19.2327V10.7673L14.9826 6.53455L7.6557 10.7673V19.2327L14.9826 23.4654L22.3095 19.2327Z" fill="#8597FC"/>
<path fill-rule="evenodd" clip-rule="evenodd" d="M22.3095 19.2327V10.7673L14.9826 6.53455V23.4654L22.3095 19.2327Z" fill="#A1AEF9"/>
<path opacity="0.251116" fill-rule="evenodd" clip-rule="evenodd" d="M15 0L27.9904 7.5V22.5L15 30L2.00962 22.5V7.5L15 0Z" fill="url(#paint0_linear)"/>
<defs>
<linearGradient id="paint0_linear" x1="30" y1="30" x2="30" y2="0" gradientUnits="userSpaceOnUse">
<stop stop-color="#AB9FE5"/>
<stop offset="1" stop-color="#F6DCFC"/>
</linearGradient>
</defs>
</svg>
